<?xml version="1.0" encoding="UTF-8"?>
<svg width="154px" height="40px" viewBox="0 0 154 40" version="1.1" xmlns="http://www.w3.org/2000/svg" xmlns:xlink="http://www.w3.org/1999/xlink">
    <title>logo</title>
    <g id="logo" stroke="none" stroke-width="1" fill="none" fill-rule="evenodd">
        <path d="M43.6054688,36 L50.3632812,21.234375 L50.4804688,21.234375 L51.1054688,36 L57.1015625,36 L67.0039062,15.0039062 L61.3007812,15.0039062 L54.8359375,30.4140625 L54.71875,30.4140625 L54.2890625,15.0039062 L48.8398438,15.0039062 L41.9648438,30.4140625 L41.8671875,30.4140625 L41.8085938,15.0039062 L36.3984375,15.0039062 L37.5117188,36 L43.6054688,36 Z M71.6914062,36.3320312 C74.2890625,36.3320312 76.4765625,35.1992188 77.6875,33.4804688 L77.8046875,33.4804688 L77.2578125,36 L82.6484375,36 L85.5195312,22.5039062 C85.5976562,22.0546875 85.6757812,21.3710938 85.6757812,20.765625 C85.6757812,17.0742188 82.296875,14.5351562 77.2773438,14.5351562 C72.1601562,14.5351562 68.4882812,17.2304688 67.7460938,21.3515625 L73.0195312,21.3515625 C73.4101562,19.8671875 74.7578125,18.9296875 76.8671875,18.9296875 C78.9570312,18.9296875 80.1875,19.8671875 80.1875,21.3320312 C80.1875,21.5664062 80.1875,21.78125 80.109375,22.1132812 L79.8554688,23.3828125 L74.4648438,23.578125 C68.8007812,23.7734375 65.3632812,26.3320312 65.3632812,30.5703125 C65.3632812,33.9101562 68.15625,36.3320312 71.6914062,36.3320312 Z M73.9375,32.1523438 C72.0820312,32.1523438 70.8125,31.2148438 70.8125,29.7890625 C70.8125,28.1875 72.2773438,27.1523438 74.6796875,27.0742188 L79.1132812,26.8984375 L78.7226562,28.6757812 C78.2539062,30.7070312 76.2421875,32.1523438 73.9375,32.1523438 Z M94.7773438,12.7578125 C96.4765625,12.7578125 97.8046875,11.4492188 97.8046875,9.75 C97.8046875,8.05078125 96.4765625,6.72265625 94.7773438,6.72265625 C93.0585938,6.72265625 91.7304688,8.05078125 91.7304688,9.75 C91.7304688,11.4492188 93.0585938,12.7578125 94.7773438,12.7578125 Z M92.0039062,36 L96.4570312,15.0039062 L90.8515625,15.0039062 L86.3984375,36 L92.0039062,36 Z M101.4375,36 L104.152344,23.2070312 C104.660156,20.7851562 106.457031,19.203125 108.410156,19.203125 C110.246094,19.203125 111.339844,20.4335938 111.339844,22.1132812 C111.339844,22.6015625 111.28125,23.1289062 111.144531,23.7148438 L108.566406,36 L113.9375,36 L116.632812,23.2070312 C117.179688,20.7070312 118.957031,19.203125 120.910156,19.203125 C122.746094,19.203125 123.839844,20.4335938 123.839844,22.1132812 C123.839844,22.6015625 123.78125,23.1289062 123.644531,23.7148438 L121.066406,36 L126.613281,36 L129.386719,22.8554688 C129.5625,21.9765625 129.660156,21.1367188 129.660156,20.375 C129.660156,16.9570312 127.179688,14.5351562 123.800781,14.5351562 C120.597656,14.5351562 118.253906,16.1757812 116.808594,18.2851562 L116.710938,18.2851562 C116.105469,16.15625 114.09375,14.5351562 111.320312,14.5351562 C108.664062,14.5351562 106.28125,16.1171875 105.089844,18.34375 L104.972656,18.34375 L105.695312,15.0039062 L100.324219,15.0039062 L95.8710938,36 L101.4375,36 Z M141.222656,36.46875 C147.960938,36.46875 152.882812,31.1171875 152.882812,23.9296875 C152.882812,18.3046875 149.113281,14.5351562 143.410156,14.5351562 C136.671875,14.5351562 131.75,19.8671875 131.75,27.0546875 C131.75,32.6992188 135.519531,36.46875 141.222656,36.46875 Z M141.398438,31.859375 C138.976562,31.859375 137.394531,29.8867188 137.394531,26.9375 C137.394531,22.484375 139.855469,19.1445312 143.214844,19.1445312 C145.636719,19.1445312 147.199219,21.0976562 147.199219,24.0664062 C147.199219,28.4804688 144.738281,31.859375 141.398438,31.859375 Z" id="waimo" fill="#374C73" fill-rule="nonzero"></path>
        <path d="M4.6191925,7.96388123 L1.7131911,24.8726547 L6.8344491,24.4735756 C8.03196892,22.6931689 9.71033612,21.9720469 11.8292925,21.8934522 C15.0077271,21.7755602 16.0176586,23.3444256 15.7429616,26.3156613 C15.4682645,29.286897 12.9495175,31.8326683 10.7887977,31.912812 C8.62807787,31.9929558 6.24564902,31.912812 6.24564902,28.5847881 L1.08768083,29.1112602 C0.41525791,34.43056 3.64754661,37.0726594 9.50691412,36.7825896 C15.3662816,36.4925199 19.611343,33.1737689 20.855529,26.4880724 C22.099715,19.8023759 18.1604831,17.5760656 15.1690685,17.5760656 C12.177654,17.5760656 10.233781,17.8867872 7.49738632,20.0290222 L8.73230218,12.8062088 L22.099715,12.310395 L22.9493552,7.28399297 L4.6191925,7.96388123 Z" id="five" fill="#374C73"></path>
        <polygon id="one" fill="#374C73" points="23.2695114 12.1806504 27.6607438 10.7889016 22.9 36.1 28.959953 36.1 34.9 3 24.1976129 7.17294969"></polygon>
    </g>
</svg>